<svg width="256" height="256" xmlns="http://www.w3.org/2000/svg" preserveAspectRatio="xMidYMid meet">

 <g>
  <title>background</title>
  <rect fill="none" id="canvas_background" height="402" width="582" y="-1" x="-1"/>
 </g>
 <g>
  <title fill="#ffffff">Layer 1</title>
  <path fill="#ffffff" id="svg_2" d="m35.700001,11.799996c-1.5,1.5 -2.700001,3.9 -2.700001,5.3c0,3.200001 4.799999,7.9 8,7.9c3.299999,0 8,-4.699999 8,-8c0,-3.3 -4.700001,-8 -8.099998,-8c-1.5,0 -3.700001,1.2 -5.200001,2.8z"/>
  <path fill="#ffffff" id="svg_3" d="m98.400002,20.399996c-4.300003,4.300001 -4.300003,6.400002 -0.099998,10.400002c4,3.9 5.599998,3.999998 9.5,0.699999c4.699997,-3.9 4.699997,-6.199999 0.299995,-10.699999c-2.099998,-2.1 -4.399994,-3.800001 -5.099998,-3.800001c-0.699997,0 -2.699997,1.5 -4.599998,3.4z"/>
  <path fill="#ffffff" id="svg_4" d="m65.400002,27.399996c-4.299999,4.300001 -4.299999,6.4 -0.099998,10.4c4,3.900002 5.599998,4 9.5,0.700001c4.699997,-3.899998 4.699997,-6.200001 0.299995,-10.699999c-2.099998,-2.1 -4.399994,-3.800001 -5.099998,-3.800001c-0.699997,0 -2.699997,1.5 -4.599998,3.4z"/>
  <path fill="#ffffff" id="svg_5" d="m37.799999,35.299995c-2.299999,1.900002 -4.799999,5.600002 -4.799999,7.100002c0,0.299999 1.400002,2.099998 3.100002,4.099998c3.899998,4.400002 6.799999,4.5 10.799999,0.400002c4.099998,-4 4,-6.900002 -0.400002,-10.799999c-4.200001,-3.700001 -5.200001,-3.800003 -8.700001,-0.800003z"/>
  <path fill="#ffffff" id="svg_6" d="m100.400002,44.399998c-4.300003,4.299999 -4.300003,6.399998 -0.099998,10.399998c4,3.900002 5.599998,4 9.5,0.700001c4.699997,-3.899998 4.699997,-6.200001 0.299995,-10.700001c-2.099998,-2.099998 -4.399994,-3.799999 -5.099998,-3.799999c-0.699997,0 -2.699997,1.5 -4.599998,3.400002z"/>
  <path fill="#ffffff" id="svg_7" d="m122.099998,49.499996c-1.699997,2 -3.099998,4.100002 -3.099998,4.799999c0,2.100002 6.400002,7.700001 8.700005,7.700001c2.200005,0 8.299995,-6.099998 8.299995,-8.299999c0,-2.099998 -6.399994,-7.700001 -8.699997,-7.700001c-1.099998,0 -3.5,1.600002 -5.200005,3.5z"/>
  <path fill="#ffffff" id="svg_8" d="m17.4,50.399998c-1.9,1.899998 -3.4,4.200001 -3.4,5.099998c0,2.200001 6.300001,8.5 8.5,8.5c2.200001,0 8.5,-6.299999 8.5,-8.5c0,-2.200001 -6.299999,-8.5 -8.5,-8.5c-0.9,0 -3.199999,1.5 -5.1,3.400002z"/>
  <path fill="#ffffff" id="svg_9" d="m161,51.899998l-3.800003,3.899998l-3.299988,-3.399998c-5,-5.100002 -7.100006,-4.600002 -15.100006,3.5c-7.899994,8.099998 -8.399994,10.200001 -3.399994,14.999996c3.699997,3.600006 5.199997,3.400002 9,-0.799995c2.5,-2.800003 3.699997,-2.700005 7.099991,0.900002c3.900009,4 6.5,3.799995 10.800003,-0.900002l3.600006,-4l4.399994,4c5.399994,4.699997 7.899994,4.900002 11.800003,1c4.800003,-4.900002 4,-6.900002 -7.800003,-17.5c-3.5,-3.100002 -7,-5.600002 -7.899994,-5.600002c-1,0 -3.400009,1.799999 -5.400009,3.900002z"/>
  <path fill="#ffffff" id="svg_10" d="m73.400002,52.399998c-4.300003,4.299999 -4.300003,6.399998 -0.099998,10.399998c4,3.900002 5.599998,4 9.5,0.700001c4.699997,-3.899998 4.699997,-6.200001 0.299995,-10.700001c-2.099998,-2.099998 -4.399994,-3.799999 -5.099998,-3.799999c-0.699997,0 -2.699997,1.5 -4.599998,3.400002z"/>
  <path fill="#ffffff" id="svg_11" d="m189.400009,61.399998c-1.900009,1.899998 -3.400009,3.799999 -3.400009,4.399998c0,0.5 1.5,2.800003 3.300003,5.200005l3.199997,4.199997l-3.699997,3.800003c-2.100006,2.099998 -3.800003,4.299995 -3.800003,4.799995c0,0.599998 1.400009,2.700005 3.100006,4.700005c4,4.5 6.800003,4.5 11.199997,0.099998l3.399994,-3.400002l4.100006,4l4,4.099998l-3.399994,2.900002c-4.100006,3.599998 -4.300003,6.5 -0.800003,10.700005c3.399994,4.099998 6.699997,4 10.899994,-0.200005l3.300003,-3.299995l4.100006,3.799995c2.199997,2.099998 4.899994,3.800003 6,3.800003c2.699997,0 8.099991,-5.400002 8.099991,-8.200005c0,-1.699997 -5.599991,-7.900002 -21.300003,-23.599998c-12.199997,-12.199997 -22,-21.200001 -23.099991,-21.200001c-1,0 -3.300003,1.5 -5.199997,3.400002z"/>
  <path fill="#ffffff" id="svg_12" d="m49.400002,67.399994c-4.299999,4.300003 -4.299999,6.400002 -0.100002,10.400002c4,3.900002 5.600002,4 9.5,0.700005c4.700001,-3.900002 4.700001,-6.200005 0.300003,-10.700005c-2.100002,-2.099998 -4.400002,-3.799999 -5.100002,-3.799999c-0.700001,0 -2.700001,1.500004 -4.599998,3.399998z"/>
  <path fill="#ffffff" id="svg_13" d="m77.400002,69.399994c-4.300003,4.300003 -4.300003,6.400002 -0.099998,10.400002c4,3.900002 5.599998,4 9.5,0.700005c4.699997,-3.900002 4.699997,-6.200005 0.299995,-10.700005c-2.099998,-2.099998 -4.399994,-3.799995 -5.099998,-3.799995c-0.699997,0 -2.699997,1.5 -4.599998,3.399994z"/>
  <path fill="#ffffff" id="svg_14" d="m110.400002,73.399994c-4.300003,4.300003 -4.300003,6.400002 -0.099998,10.400002c4,3.900002 5.599998,4 9.5,0.700005c4.699997,-3.900002 4.699997,-6.200005 0.299995,-10.700005c-2.099998,-2.099998 -4.399994,-3.799995 -5.099998,-3.799995c-0.699997,0 -2.699997,1.5 -4.599998,3.399994z"/>
  <path fill="#ffffff" id="svg_15" d="m133.100006,79.5c-1.699997,2 -3.100006,4 -3.100006,4.5c0,2.099998 6.300003,8 8.5,8c2.900009,0 8.5,-5.200005 8.5,-7.800003c0,-2.800003 -5.599991,-8.199997 -8.5,-8.199997c-1.399994,0 -3.5,1.399994 -5.399994,3.5z"/>
  <path fill="#ffffff" id="svg_16" d="m151.699997,78.799995c-3.399994,3.5 -3.399994,6.200005 -0.099991,10.099998c3.199997,3.800003 6.199997,4 10.300003,0.5c4,-3.299995 4,-6.599998 0.199997,-10.5c-3.699997,-3.699997 -7,-3.699997 -10.400009,-0.099998z"/>
  <path fill="#ffffff" id="svg_17" d="m170.199997,79.299995c-1.799988,1.800003 -3.199997,3.800003 -3.199997,4.5c0,2.200005 6.199997,8.200005 8.400009,8.200005c2.299988,0 8.599991,-5.700005 8.599991,-7.800003c0,-2.199997 -6.199997,-8.199997 -8.399994,-8.199997c-1.199997,0 -3.600006,1.5 -5.400009,3.299995z"/>
  <path fill="#ffffff" id="svg_18" d="m26.200001,80.5c-4.6,3.899994 -4.700001,6.199997 -0.300001,10.599998c4.400002,4.400002 6.700003,4.299995 10.6,-0.300003c3.299999,-3.900002 3.200001,-5.799995 -0.799999,-9.599998c-4,-3.900002 -5.6,-4 -9.5,-0.699997z"/>
  <path fill="#ffffff" id="svg_19" d="m60.400002,91.399994c-4.299999,4.300003 -4.299999,6.400002 -0.100002,10.400002c4.000004,3.900002 5.600002,4 9.500004,0.700005c4.699997,-3.900002 4.699997,-6.200005 0.299995,-10.700005c-2.099998,-2.099998 -4.399994,-3.799995 -5.099998,-3.799995c-0.699997,0 -2.700001,1.5 -4.599998,3.399994z"/>
  <path fill="#ffffff" id="svg_20" d="m92.400002,91.399994c-4.300003,4.300003 -4.300003,6.400002 -0.099998,10.400002c4,3.900002 5.599998,4 9.5,0.700005c4.699997,-3.900002 4.699997,-6.200005 0.299995,-10.700005c-2.099998,-2.099998 -4.399994,-3.799995 -5.099998,-3.799995c-0.699997,0 -2.699997,1.5 -4.599998,3.399994z"/>
  <path fill="#ffffff" id="svg_21" d="m116.200005,97.299995c-1.800003,1.800003 -3.200005,4.200005 -3.200005,5.300003c0,2.099998 5.800003,8.400002 7.800003,8.400002c2.199997,0 8.199997,-6.200005 8.199997,-8.5c0,-2.400002 -6,-8.5 -8.299995,-8.5c-0.700005,0 -2.700005,1.5 -4.5,3.299995z"/>
  <path fill="#ffffff" id="svg_22" d="m170.199997,97.299995c-1.799988,1.800003 -3.199997,3.800003 -3.199997,4.5c0,2.200005 6.199997,8.200005 8.400009,8.200005c2.299988,0 8.599991,-5.700005 8.599991,-7.800003c0,-2.199997 -6.199997,-8.199997 -8.399994,-8.199997c-1.199997,0 -3.600006,1.5 -5.400009,3.299995z"/>
  <path fill="#ffffff" id="svg_23" d="m188.100006,97.5c-1.699997,2 -3.100006,4 -3.100006,4.5c0,2.099998 6.300003,8 8.5,8c2.900009,0 8.5,-5.200005 8.5,-7.800003c0,-2.800003 -5.599991,-8.199997 -8.5,-8.199997c-1.399994,0 -3.5,1.399994 -5.399994,3.5z"/>
  <path fill="#ffffff" id="svg_24" d="m41.400002,99.399994c-4.299999,4.300003 -4.299999,6.400002 -0.100002,10.400002c4,3.900002 5.600002,4 9.5,0.700005c4.700001,-3.900002 4.700001,-6.200005 0.300003,-10.700005c-2.100002,-2.099998 -4.400002,-3.799995 -5.100002,-3.799995c-0.700001,0 -2.700001,1.5 -4.599998,3.399994z"/>
  <path fill="#ffffff" id="svg_25" d="m97.200005,115.299995c-1.800003,1.800003 -3.200005,4.200005 -3.200005,5.300003c0,2.099998 5.800003,8.400002 7.800003,8.400002c2.199997,0 8.199997,-6.200005 8.199997,-8.5c0,-2.400002 -6,-8.5 -8.299995,-8.5c-0.700005,0 -2.700005,1.5 -4.5,3.299995z"/>
  <path fill="#ffffff" id="svg_26" d="m188.900009,115.900002c-2.100006,2.099998 -3.900009,4.399994 -3.900009,4.899994c0,2.200005 6.199997,8.200005 8.400009,8.200005c2.699997,0 8.599991,-5.900002 8.599991,-8.599998c0,-2.200005 -4.300003,-6.700005 -7.399994,-7.800003c-1.300003,-0.400002 -2.900009,0.5 -5.699997,3.300003z"/>
  <path fill="#ffffff" id="svg_27" d="m207.5,115.099998c-4.399994,3.900002 -4.5,7 -0.599991,11c3.699997,3.700005 6.099991,3.700005 10,0c4.199997,-3.900002 4,-7.099998 -0.400009,-11c-2,-1.699997 -4,-3.099998 -4.5,-3.099998c-0.5,0 -2.5,1.400002 -4.5,3.099998z"/>
  <path fill="#ffffff" id="svg_28" d="m79,116.900002l-3.599998,3.799995l-2.800003,-2.299995c-3.5,-3.100006 -4.199997,-3 -8.199997,1c-4.299999,4.299995 -4.299999,6.399994 -0.099998,10.400002c4.199997,4.099991 6.099998,4 10.400002,-0.300003l3.599998,-3.599998l2.199997,2.099998c2.800003,2.599991 4.700005,2.5 8.300003,-0.5c4.699997,-3.900002 4.699997,-6.200005 0.299995,-10.700005c-2.099998,-2.099998 -4.399994,-3.799995 -5.099998,-3.799995c-0.699997,0 -3,1.699997 -5,3.900002z"/>
  <path fill="#ffffff" id="svg_29" d="m225.800003,116.699997c-4,4.200005 -4,5.200005 0.800003,10.400002l2.399994,2.499992l-3.5,3.400009c-4.399994,4.300003 -4.399994,7 -0.099991,10.800003l3.5,3l-3.5,3.699997c-1.900009,2 -3.400009,4.600006 -3.400009,5.699997c0,1.100006 1.600006,3.600006 3.600006,5.5l3.699997,3.400009l-4.300003,4.399994l-4.300003,4.399994l-3.199997,-3.5c-4,-4.199997 -6.800003,-4.299988 -10.599991,-0.5c-3.700012,3.800003 -3.700012,6.700012 0.299988,10.800003l3.200012,3.300003l-3.900009,4l-3.899994,4l-3.100006,-2.899994c-4.899994,-4.600006 -6.199997,-4.600006 -10.599991,-0.200012c-2.100006,2.100006 -3.900009,4.400009 -3.900009,5c0,0.600006 1.600006,2.800003 3.5,4.900009l3.400009,3.899994l-3.800003,3.699997l-3.800003,3.700012l-3.199997,-3.100006c-4.300003,-3.899994 -6.699997,-3.800003 -11.199997,0.600006l-3.700012,3.699997l-3.199997,-3.699997c-4.099991,-4.600006 -6.899994,-4.600006 -12,0.099991l-4.099991,3.600006l-3.700012,-3.600006c-2.099991,-2.099991 -4.099991,-3.699997 -4.5,-3.699997c-0.399994,0 -2.5,1.600006 -4.699997,3.600006l-4,3.599991l-3.5,-3.099991c-4.5,-3.900009 -7.099998,-3.900009 -11.199997,0.099991l-3.300003,3.199997l-4.5,-4.399994l-4.5,-4.399994l3.400002,-2.800003c5.099998,-4.199997 5.199997,-6.400009 0.699997,-11c-2.099998,-2.100006 -4.399994,-3.800003 -5.099998,-3.800003c-0.699997,0 -3,1.800003 -5,3.899994l-3.799995,3.900009l-4.5,-4.600006l-4.600006,-4.699997l2.800003,-1.699997c1.599998,-0.900009 3.699997,-2.699997 4.599998,-4.100006c1.900002,-2.899994 1.099998,-5.199997 -3.299995,-9.899994l-2.5,-2.699997l3,-2.5c4.799995,-4 4.799995,-6.300003 0.399994,-10.800003c-2.099998,-2.100006 -4.399994,-3.800003 -5.099998,-3.800003c-0.699997,0 -3,1.800003 -5.099998,3.899994c-3.5,3.700012 -3.800003,3.900009 -5.300003,2.300003c-1.399994,-1.600006 -1.199997,-2 1.800003,-4.399994c5.099998,-4.100006 5.199997,-6.400009 0.699997,-11c-2.099998,-2.100006 -4.399994,-3.800003 -5.099998,-3.800003c-1.900002,0 -8,6.599991 -8,8.699997c0,1 0.5,2.399994 1.200005,3.100006c1,1 0.399994,1.899994 -2.500004,4.299988c-2,1.700012 -3.700001,3.900009 -3.700001,5.000015c0,1.199997 -0.700001,1.899994 -1.799999,1.899994c-1,0 -3.299999,1.5 -5.099998,3.399994c-4.300003,4.400009 -3.800003,5.800003 5.599998,15.700012l7.500004,7.899994l-3.100002,3c-2.300003,2.100006 -3.100002,3.699997 -2.900002,5.5c0.400002,3.5 41.299999,44.5 44.399998,44.5c1.300003,0 3.400002,-1.399994 5.100006,-3.399994l2.799995,-3.300003l8.599998,8.300003c4.800003,4.599991 9.400002,8.399994 10.300011,8.399994c0.899994,0 3.399994,-1.600006 5.599991,-3.600006l4,-3.599991l4,3.599991c4.5,4 5.800003,3.900009 10.699997,-0.699997l3.200012,-3l4,3.600006c2.699997,2.5 4.599991,3.5 5.799988,3c1,-0.300003 5.5,-4.199997 10,-8.600006l8.100006,-8l3.199997,3.699997c1.900009,2.100006 4.100006,3.600006 5.400009,3.600006c3.099991,0 44,-41 44.399994,-44.600006c0.300003,-1.899994 -0.600006,-3.399994 -3.100006,-5.699997l-3.5,-3.199997l7.900009,-8.100006c9.099991,-9.399994 9.699997,-11.599991 4.599991,-16.099991l-3.399994,-3l3.899994,-4.100006c2.100006,-2.300003 3.800003,-4.899994 3.800003,-5.800003c0,-0.899994 -1.599991,-3.199997 -3.5,-5.099991l-3.5,-3.5l3.5,-3.900009c1.900009,-2.199997 3.5,-4.399994 3.5,-5.099991c0,-1.700012 -15.399994,-16.800003 -17.099991,-16.800003c-0.800003,0 -3.100006,1.699997 -5.100006,3.699997z"/>
  <path fill="#ffffff" id="svg_30" d="m45.400002,123.400002c-4.299999,4.299995 -4.299999,6.400002 -0.100002,10.400002c4,3.899994 5.600002,4 9.5,0.699997c4.700001,-3.900009 4.700001,-6.199997 0.300003,-10.700005c-2.100002,-2.099998 -4.400002,-3.799995 -5.100002,-3.799995c-0.700001,0 -2.700001,1.5 -4.599998,3.400002z"/>
  <path fill="#ffffff" id="svg_31" d="m97.200005,133.300003c-1.800003,1.799988 -3.200005,4.199997 -3.200005,5.299988c0,2.100006 5.800003,8.400009 7.800003,8.400009c2.199997,0 8.199997,-6.199997 8.199997,-8.5c0,-2.400009 -6,-8.5 -8.299995,-8.5c-0.700005,0 -2.700005,1.5 -4.5,3.300003z"/>
  <path fill="#ffffff" id="svg_32" d="m188.100006,134.5c-1.699997,2 -3.100006,4 -3.100006,4.5c0,2.099991 6.300003,8 8.5,8c2.900009,0 8.5,-5.400009 8.5,-8.199997c0,-2.600006 -5.599991,-7.800003 -8.5,-7.800003c-1.399994,0 -3.5,1.399994 -5.399994,3.5z"/>
  <path fill="#ffffff" id="svg_33" d="m206.600006,134.099991c-3.300003,3.900009 -3.300003,6.900009 0.199997,10.200012c3.600006,3.5 6.600006,3.399994 10.300003,-0.200012c3.800003,-3.899994 3.800003,-7.199997 -0.199997,-10.5c-4.100006,-3.5 -7.100006,-3.299988 -10.300003,0.5z"/>
  <path fill="#ffffff" id="svg_34" d="m41.400002,141.399994c-4.299999,4.300003 -4.299999,6.400009 -0.100002,10.400009c4,3.899994 5.600002,4 9.5,0.699997c4.700001,-3.900009 4.700001,-6.199997 0.300003,-10.699997c-2.100002,-2.100006 -4.400002,-3.800003 -5.100002,-3.800003c-0.700001,0 -2.700001,1.5 -4.599998,3.399994z"/>
  <path fill="#ffffff" id="svg_35" d="m97.200005,152.300003c-1.800003,1.800003 -3.200005,4.199997 -3.200005,5.399994c0,2.100006 6.099998,8.300003 8.200005,8.300003c1.399994,0 8.799995,-7.5 8.799995,-9c0,-1.899994 -6.599998,-8 -8.699997,-8c-1.099998,0 -3.300003,1.5 -5.099998,3.300003z"/>
  <path fill="#ffffff" id="svg_36" d="m115.099998,152.5c-3.699997,4.199997 -3.799995,5.300003 -1,8.899994c2.900002,3.700012 5.800003,4.700012 9,3c2.800003,-1.399994 5.900002,-5.5 5.900002,-7.799988c0,-1.900009 -6.599998,-7.600006 -8.900002,-7.600006c-1.099998,0 -3.299995,1.599991 -5,3.5z"/>
  <path fill="#ffffff" id="svg_37" d="m170.100006,152.5c-3.699997,4.199997 -3.800003,5.300003 -1,8.899994c2.899994,3.700012 5.800003,4.700012 9,3c2.800003,-1.399994 5.899994,-5.5 5.899994,-7.799988c0,-1.900009 -6.599991,-7.600006 -8.899994,-7.600006c-1.100006,0 -3.300003,1.599991 -5,3.5z"/>
  <path fill="#ffffff" id="svg_38" d="m189.199997,151.5c-4.599991,3.899994 -4.699997,6.199997 -0.299988,10.600006c4.399994,4.399994 6.699997,4.299988 10.599991,-0.300003c3.300003,-3.900009 3.199997,-5.800003 -0.800003,-9.600006c-4,-3.899994 -5.599991,-4 -9.5,-0.699997z"/>
  <path fill="#ffffff" id="svg_39" d="m206.900009,151.899994c-3.900009,4 -3.800003,7.100006 0.599991,11c2,1.700012 4,3.100006 4.5,3.100006c0.5,0 2.5,-1.399994 4.5,-3.100006c4.400009,-3.899994 4.5,-7 0.600006,-11c-3.699997,-3.699997 -6.5,-3.699997 -10.199997,0z"/>
  <path fill="#ffffff" id="svg_40" d="m97.200005,170.300003c-1.800003,1.800003 -3.200005,4.199997 -3.200005,5.399994c0,2.100006 6.099998,8.300003 8.200005,8.300003c1.399994,0 8.799995,-7.5 8.799995,-9c0,-1.899994 -6.599998,-8 -8.699997,-8c-1.099998,0 -3.300003,1.5 -5.099998,3.300003z"/>
  <path fill="#ffffff" id="svg_41" d="m115.099998,170.5c-3.699997,4.199997 -3.799995,5.300003 -1,8.899994c2.900002,3.700012 5.800003,4.700012 9,3c2.800003,-1.399994 5.900002,-5.5 5.900002,-7.799988c0,-1.900009 -6.599998,-7.600006 -8.900002,-7.600006c-1.099998,0 -3.299995,1.600006 -5,3.5z"/>
  <path fill="#ffffff" id="svg_42" d="m134.199997,169.5c-4.599991,3.899994 -4.699997,6.199997 -0.299988,10.600006c4.399994,4.399994 6.699997,4.299988 10.599991,-0.300003c3.300003,-3.900009 3.199997,-5.800003 -0.800003,-9.600006c-4,-3.899994 -5.599991,-4 -9.5,-0.699997z"/>
  <path fill="#ffffff" id="svg_43" d="m151.900009,169.899994c-3.900009,4 -3.800003,7.100006 0.599991,11c2,1.700012 4,3.100006 4.5,3.100006c0.5,0 2.5,-1.399994 4.5,-3.100006c4.400009,-3.899994 4.5,-7 0.600006,-11c-3.699997,-3.699997 -6.5,-3.699997 -10.199997,0z"/>
  <path fill="#ffffff" id="svg_44" d="m170.100006,170.5c-3.699997,4.199997 -3.800003,5.300003 -1,8.899994c2.899994,3.700012 5.800003,4.700012 9,3c2.800003,-1.399994 5.899994,-5.5 5.899994,-7.799988c0,-1.900009 -6.599991,-7.600006 -8.899994,-7.600006c-1.100006,0 -3.300003,1.600006 -5,3.5z"/>
  <path fill="#ffffff" id="svg_45" d="m189.199997,169.5c-4.599991,3.899994 -4.699997,6.199997 -0.299988,10.600006c4.399994,4.399994 6.699997,4.299988 10.599991,-0.300003c3.300003,-3.900009 3.199997,-5.800003 -0.800003,-9.600006c-4,-3.899994 -5.599991,-4 -9.5,-0.699997z"/>
  <path fill="#ffffff" id="svg_46" d="m118.400002,186c-2.400002,0.899994 -6.400002,6.100006 -6.400002,8.199997c0,1.900009 6.200005,7.800003 8.200005,7.800003c2.199997,0 7.5,-4.600006 8.299995,-7.100006c1.400009,-4.199997 -5.799995,-10.5 -10.099998,-8.899994z"/>
  <path fill="#ffffff" id="svg_47" d="m133.900009,188.899994c-2.100006,2.100006 -3.900009,4.400009 -3.900009,4.900009c0,2.199997 6.199997,8.199997 8.400009,8.199997c2.699997,0 8.599991,-5.899994 8.599991,-8.600006c0,-2.199997 -4.300003,-6.699997 -7.399994,-7.799988c-1.300003,-0.400009 -2.900009,0.5 -5.699997,3.299988z"/>
  <path fill="#ffffff" id="svg_48" d="m152.400009,188.399994c-4.300003,4.300003 -4.300003,6.400009 -0.100006,10.400009c4,3.899994 5.600006,4 9.5,0.699997c4.699997,-3.899994 4.699997,-6.199997 0.300003,-10.699997c-2.100006,-2.100006 -4.400009,-3.800003 -5.100006,-3.800003c-0.699997,0 -2.699997,1.5 -4.599991,3.399994z"/>
  <path fill="#ffffff" id="svg_49" d="m173.400009,186c-2.400009,0.899994 -6.400009,6.100006 -6.400009,8.199997c0,1.900009 6.199997,7.800003 8.199997,7.800003c2.200012,0 7.5,-4.600006 8.300003,-7.100006c1.400009,-4.199997 -5.800003,-10.5 -10.099991,-8.899994z"/>
 </g>
</svg>