<?xml version="1.0" ?><!DOCTYPE svg  PUBLIC '-//W3C//DTD SVG 20010904//EN'  'http://www.w3.org/TR/2001/REC-SVG-20010904/DTD/svg10.dtd'><svg height="256.000000pt" preserveAspectRatio="xMidYMid meet" version="1.0" viewBox="0 0 256.000000 256.000000" width="256.000000pt" xmlns="http://www.w3.org/2000/svg"><g fill="#000000" stroke="none" transform="translate(0.000000,256.000000) scale(0.100000,-0.100000)"><path d="M357 2442 c-15 -15 -27 -39 -27 -53 0 -32 48 -79 80 -79 33 0 80 47 80 80 0 33 -47 80 -81 80 -15 0 -37 -12 -52 -28z"/><path d="M984 2356 c-43 -43 -43 -64 -1 -104 40 -39 56 -40 95 -7 47 39 47 62 3 107 -21 21 -44 38 -51 38 -7 0 -27 -15 -46 -34z"/><path d="M654 2286 c-43 -43 -43 -64 -1 -104 40 -39 56 -40 95 -7 47 39 47 62 3 107 -21 21 -44 38 -51 38 -7 0 -27 -15 -46 -34z"/><path d="M378 2207 c-23 -19 -48 -56 -48 -71 0 -3 14 -21 31 -41 39 -44 68 -45 108 -4 41 40 40 69 -4 108 -42 37 -52 38 -87 8z"/><path d="M1004 2116 c-43 -43 -43 -64 -1 -104 40 -39 56 -40 95 -7 47 39 47 62 3 107 -21 21 -44 38 -51 38 -7 0 -27 -15 -46 -34z"/><path d="M1221 2065 c-17 -20 -31 -41 -31 -48 0 -21 64 -77 87 -77 22 0 83 61 83 83 0 21 -64 77 -87 77 -11 0 -35 -16 -52 -35z"/><path d="M174 2056 c-19 -19 -34 -42 -34 -51 0 -22 63 -85 85 -85 22 0 85 63 85 85 0 22 -63 85 -85 85 -9 0 -32 -15 -51 -34z"/><path d="M1610 2041 l-38 -39 -33 34 c-50 51 -71 46 -151 -35 -79 -81 -84 -102 -34 -150 37 -36 52 -34 90 8 25 28 37 27 71 -9 39 -40 65 -38 108 9 l36 40 44 -40 c54 -47 79 -49 118 -10 48 49 40 69 -78 175 -35 31 -70 56 -79 56 -10 0 -34 -18 -54 -39z"/><path d="M734 2036 c-43 -43 -43 -64 -1 -104 40 -39 56 -40 95 -7 47 39 47 62 3 107 -21 21 -44 38 -51 38 -7 0 -27 -15 -46 -34z"/><path d="M1894 1946 c-19 -19 -34 -38 -34 -44 0 -5 15 -28 33 -52 l32 -42 -37 -38 c-21 -21 -38 -43 -38 -48 0 -6 14 -27 31 -47 40 -45 68 -45 112 -1 l34 34 41 -40 40 -41 -34 -29 c-41 -36 -43 -65 -8 -107 34 -41 67 -40 109 2 l33 33 41 -38 c22 -21 49 -38 60 -38 27 0 81 54 81 82 0 17 -56 79 -213 236 -122 122 -220 212 -231 212 -10 0 -33 -15 -52 -34z"/><path d="M494 1886 c-43 -43 -43 -64 -1 -104 40 -39 56 -40 95 -7 47 39 47 62 3 107 -21 21 -44 38 -51 38 -7 0 -27 -15 -46 -34z"/><path d="M774 1866 c-43 -43 -43 -64 -1 -104 40 -39 56 -40 95 -7 47 39 47 62 3 107 -21 21 -44 38 -51 38 -7 0 -27 -15 -46 -34z"/><path d="M1104 1826 c-43 -43 -43 -64 -1 -104 40 -39 56 -40 95 -7 47 39 47 62 3 107 -21 21 -44 38 -51 38 -7 0 -27 -15 -46 -34z"/><path d="M1331 1765 c-17 -20 -31 -40 -31 -45 0 -21 63 -80 85 -80 29 0 85 52 85 78 0 28 -56 82 -85 82 -14 0 -35 -14 -54 -35z"/><path d="M1517 1772 c-34 -35 -34 -62 -1 -101 32 -38 62 -40 103 -5 40 33 40 66 2 105 -37 37 -70 37 -104 1z"/><path d="M1702 1767 c-18 -18 -32 -38 -32 -45 0 -22 62 -82 84 -82 23 0 86 57 86 78 0 22 -62 82 -84 82 -12 0 -36 -15 -54 -33z"/><path d="M262 1755 c-46 -39 -47 -62 -3 -106 44 -44 67 -43 106 3 33 39 32 58 -8 96 -40 39 -56 40 -95 7z"/><path d="M604 1646 c-43 -43 -43 -64 -1 -104 40 -39 56 -40 95 -7 47 39 47 62 3 107 -21 21 -44 38 -51 38 -7 0 -27 -15 -46 -34z"/><path d="M924 1646 c-43 -43 -43 -64 -1 -104 40 -39 56 -40 95 -7 47 39 47 62 3 107 -21 21 -44 38 -51 38 -7 0 -27 -15 -46 -34z"/><path d="M1162 1587 c-18 -18 -32 -42 -32 -53 0 -21 58 -84 78 -84 22 0 82 62 82 85 0 24 -60 85 -83 85 -7 0 -27 -15 -45 -33z"/><path d="M1702 1587 c-18 -18 -32 -38 -32 -45 0 -22 62 -82 84 -82 23 0 86 57 86 78 0 22 -62 82 -84 82 -12 0 -36 -15 -54 -33z"/><path d="M1881 1585 c-17 -20 -31 -40 -31 -45 0 -21 63 -80 85 -80 29 0 85 52 85 78 0 28 -56 82 -85 82 -14 0 -35 -14 -54 -35z"/><path d="M414 1566 c-43 -43 -43 -64 -1 -104 40 -39 56 -40 95 -7 47 39 47 62 3 107 -21 21 -44 38 -51 38 -7 0 -27 -15 -46 -34z"/><path d="M972 1407 c-18 -18 -32 -42 -32 -53 0 -21 58 -84 78 -84 22 0 82 62 82 85 0 24 -60 85 -83 85 -7 0 -27 -15 -45 -33z"/><path d="M1889 1401 c-21 -21 -39 -44 -39 -49 0 -22 62 -82 84 -82 27 0 86 59 86 86 0 22 -43 67 -74 78 -13 4 -29 -5 -57 -33z"/><path d="M2075 1409 c-44 -39 -45 -70 -6 -110 37 -37 61 -37 100 0 42 39 40 71 -4 110 -20 17 -40 31 -45 31 -5 0 -25 -14 -45 -31z"/><path d="M790 1391 l-36 -38 -28 23 c-35 31 -42 30 -82 -10 -43 -43 -43 -64 -1 -104 42 -41 61 -40 104 3 l36 36 22 -21 c28 -26 47 -25 83 5 47 39 47 62 3 107 -21 21 -44 38 -51 38 -7 0 -30 -17 -50 -39z"/><path d="M2258 1393 c-40 -42 -40 -52 8 -104 l24 -25 -35 -34 c-44 -43 -44 -70 -1 -108 l35 -30 -35 -37 c-19 -20 -34 -46 -34 -57 0 -11 16 -36 36 -55 l37 -34 -43 -44 -43 -44 -32 35 c-40 42 -68 43 -106 5 -37 -38 -37 -67 3 -108 l32 -33 -39 -40 -39 -40 -31 29 c-49 46 -62 46 -106 2 -21 -21 -39 -44 -39 -50 0 -6 16 -28 35 -49 l34 -39 -38 -37 -38 -37 -32 31 c-43 39 -67 38 -112 -6 l-37 -37 -32 37 c-41 46 -69 46 -120 -1 l-41 -36 -37 36 c-21 21 -41 37 -45 37 -4 0 -25 -16 -47 -36 l-40 -36 -35 31 c-45 39 -71 39 -112 -1 l-33 -32 -45 44 -45 44 34 28 c51 42 52 64 7 110 -21 21 -44 38 -51 38 -7 0 -30 -18 -50 -39 l-38 -39 -45 46 -46 47 28 17 c16 9 37 27 46 41 19 29 11 52 -33 99 l-25 27 30 25 c48 40 48 63 4 108 -21 21 -44 38 -51 38 -7 0 -30 -18 -51 -39 -35 -37 -38 -39 -53 -23 -14 16 -12 20 18 44 51 41 52 64 7 110 -21 21 -44 38 -51 38 -19 0 -80 -66 -80 -87 0 -10 5 -24 12 -31 10 -10 4 -19 -25 -43 -20 -17 -37 -39 -37 -50 0 -12 -7 -19 -18 -19 -10 0 -33 -15 -51 -34 -43 -44 -38 -58 56 -157 l75 -79 -31 -30 c-23 -21 -31 -37 -29 -55 4 -35 413 -445 444 -445 13 0 34 14 51 34 l28 33 86 -83 c48 -46 94 -84 103 -84 9 0 34 16 56 36 l40 36 40 -36 c45 -40 58 -39 107 7 l32 30 40 -36 c27 -25 46 -35 58 -30 10 3 55 42 100 86 l81 80 32 -37 c19 -21 41 -36 54 -36 31 0 440 410 444 446 3 19 -6 34 -31 57 l-35 32 79 81 c91 94 97 116 46 161 l-34 30 39 41 c21 23 38 49 38 58 0 9 -16 32 -35 51 l-35 35 35 39 c19 22 35 44 35 51 0 17 -154 168 -171 168 -8 0 -31 -17 -51 -37z"/><path d="M454 1326 c-43 -43 -43 -64 -1 -104 40 -39 56 -40 95 -7 47 39 47 62 3 107 -21 21 -44 38 -51 38 -7 0 -27 -15 -46 -34z"/><path d="M972 1227 c-18 -18 -32 -42 -32 -53 0 -21 58 -84 78 -84 22 0 82 62 82 85 0 24 -60 85 -83 85 -7 0 -27 -15 -45 -33z"/><path d="M1881 1215 c-17 -20 -31 -40 -31 -45 0 -21 63 -80 85 -80 29 0 85 54 85 82 0 26 -56 78 -85 78 -14 0 -35 -14 -54 -35z"/><path d="M2066 1219 c-33 -39 -33 -69 2 -102 36 -35 66 -34 103 2 38 39 38 72 -2 105 -41 35 -71 33 -103 -5z"/><path d="M414 1146 c-43 -43 -43 -64 -1 -104 40 -39 56 -40 95 -7 47 39 47 62 3 107 -21 21 -44 38 -51 38 -7 0 -27 -15 -46 -34z"/><path d="M972 1037 c-18 -18 -32 -42 -32 -54 0 -21 61 -83 82 -83 14 0 88 75 88 90 0 19 -66 80 -87 80 -11 0 -33 -15 -51 -33z"/><path d="M1151 1035 c-37 -42 -38 -53 -10 -89 29 -37 58 -47 90 -30 28 14 59 55 59 78 0 19 -66 76 -89 76 -11 0 -33 -16 -50 -35z"/><path d="M1701 1035 c-37 -42 -38 -53 -10 -89 29 -37 58 -47 90 -30 28 14 59 55 59 78 0 19 -66 76 -89 76 -11 0 -33 -16 -50 -35z"/><path d="M1892 1045 c-46 -39 -47 -62 -3 -106 44 -44 67 -43 106 3 33 39 32 58 -8 96 -40 39 -56 40 -95 7z"/><path d="M2069 1041 c-39 -40 -38 -71 6 -110 20 -17 40 -31 45 -31 5 0 25 14 45 31 44 39 45 70 6 110 -37 37 -65 37 -102 0z"/><path d="M972 857 c-18 -18 -32 -42 -32 -54 0 -21 61 -83 82 -83 14 0 88 75 88 90 0 19 -66 80 -87 80 -11 0 -33 -15 -51 -33z"/><path d="M1151 855 c-37 -42 -38 -53 -10 -89 29 -37 58 -47 90 -30 28 14 59 55 59 78 0 19 -66 76 -89 76 -11 0 -33 -16 -50 -35z"/><path d="M1342 865 c-46 -39 -47 -62 -3 -106 44 -44 67 -43 106 3 33 39 32 58 -8 96 -40 39 -56 40 -95 7z"/><path d="M1519 861 c-39 -40 -38 -71 6 -110 20 -17 40 -31 45 -31 5 0 25 14 45 31 44 39 45 70 6 110 -37 37 -65 37 -102 0z"/><path d="M1701 855 c-37 -42 -38 -53 -10 -89 29 -37 58 -47 90 -30 28 14 59 55 59 78 0 19 -66 76 -89 76 -11 0 -33 -16 -50 -35z"/><path d="M1892 865 c-46 -39 -47 -62 -3 -106 44 -44 67 -43 106 3 33 39 32 58 -8 96 -40 39 -56 40 -95 7z"/><path d="M1184 700 c-24 -9 -64 -61 -64 -82 0 -19 62 -78 82 -78 22 0 75 46 83 71 14 42 -58 105 -101 89z"/><path d="M1339 671 c-21 -21 -39 -44 -39 -49 0 -22 62 -82 84 -82 27 0 86 59 86 86 0 22 -43 67 -74 78 -13 4 -29 -5 -57 -33z"/><path d="M1524 676 c-43 -43 -43 -64 -1 -104 40 -39 56 -40 95 -7 47 39 47 62 3 107 -21 21 -44 38 -51 38 -7 0 -27 -15 -46 -34z"/><path d="M1734 700 c-24 -9 -64 -61 -64 -82 0 -19 62 -78 82 -78 22 0 75 46 83 71 14 42 -58 105 -101 89z"/></g></svg>