<?xml version="1.0" ?><svg height="48px" version="1.1" viewBox="0 0 48 48" width="48px" xmlns="http://www.w3.org/2000/svg" xmlns:xlink="http://www.w3.org/1999/xlink"><defs/><path d="M14,40 L34,40 L34,24 L14,24 L14,40 Z M10,22.9910904 C10,21.3391568 11.3504982,20 12.9964905,20 L35.0035095,20 C36.6584255,20 38,21.3417706 38,22.9910904 L38,41.0089096 C38,42.6608432 36.6495018,44 35.0035095,44 L12.9964905,44 C11.3415745,44 10,42.6582294 10,41.0089096 L10,22.9910904 Z" fill="#000000" fill-rule="nonzero" id="Rectangle-9"/><path d="M33.9999998,21.3083497 L34,13.6541749 C34.0000001,8.32510126 29.6749482,4 24.351462,4 L23.6485382,4 C18.3220862,4 14,8.32862885 14,13.6541748 L14,21.3083496 L18,21.3083496 L18,13.6541748 C18,10.5364145 20.5325808,8 23.6485382,8 L24.351462,8 C27.4657989,8 30.0000001,10.53423 30,13.6541748 L29.9999998,21.3083496 L33.9999998,21.3083497 Z" fill="#000000" fill-rule="nonzero" id="Path-31"/></svg>