<?xml version="1.0" ?><svg height="48px" version="1.1" viewBox="0 0 48 48" width="48px" xmlns="http://www.w3.org/2000/svg" xmlns:xlink="http://www.w3.org/1999/xlink"><defs/><path d="M32.6181172,29.8390088 L41.743351,39.104948 L38.8933678,41.9116535 L29.7834718,32.6612886 C30.8417835,31.8423249 31.7946137,30.8936165 32.6181172,29.8390088 Z" fill="#000000" fill-rule="nonzero" id="Shape"/><path d="M20,28 L20,28 C24.418278,28 28,24.418278 28,20 C28,15.581722 24.418278,12 20,12 C15.581722,12 12,15.581722 12,20 C12,24.418278 15.581722,28 20,28 L20,28 Z M20,32 L20,32 C13.372583,32 8,26.627417 8,20 C8,13.372583 13.372583,8 20,8 C26.627417,8 32,13.372583 32,20 C32,26.627417 26.627417,32 20,32 L20,32 Z" fill="#000000" fill-rule="nonzero" id="Shape"/></svg>