<?xml version="1.0" ?><svg height="48px" version="1.1" viewBox="0 0 48 48" width="48px" xmlns="http://www.w3.org/2000/svg" xmlns:xlink="http://www.w3.org/1999/xlink"><defs/><path d="M12,35.9957423 C12,35.9985567 19.9985808,35.9999759 35.9957423,36 C35.9985567,36 35.9999759,28.0014192 36,12.0042577 C36,12.0014433 28.0014192,12.0000241 12.0042577,12 C12.0014433,12 12.0000241,19.9985808 12,35.9957423 Z M8,12.0042577 C8,9.79276724 9.78902751,8 12.0042577,8 L35.9957423,8 C38.2072328,8 40,9.78902751 40,12.0042577 L40,35.9957423 C40,38.2072328 38.2109725,40 35.9957423,40 L12.0042577,40 C9.79276724,40 8,38.2109725 8,35.9957423 L8,12.0042577 Z" fill="#000000" fill-rule="nonzero" id="Rectangle-3"/></svg>